<svg xmlns="http://www.w3.org/2000/svg" width="22" height="22" viewBox="0 0 22 22" fill="none"><path d="M5.02408 1.82667C4.67972 1.38393 4.02524 1.34318 3.62863 1.7398L2.20699 3.16144C1.54221 3.82622 1.29782 4.76803 1.58827 5.59415C2.75464 8.9117 4.66421 12.0267 7.31874 14.6813C9.97327 17.3358 13.0883 19.2454 16.4059 20.4117C17.232 20.7022 18.1738 20.4578 18.8386 19.793L20.2602 18.3714C20.6568 17.9748 20.6161 17.3203 20.1733 16.9759L17.0023 14.5096C16.7761 14.3337 16.4816 14.2715 16.2037 14.341L13.1937 15.0935C12.3761 15.2979 11.5113 15.0583 10.9154 14.4624L7.53757 11.0846C6.94168 10.4887 6.70213 9.62388 6.90652 8.80631L7.65901 5.79635C7.7285 5.51837 7.66634 5.22387 7.49042 4.99769L5.02408 1.82667ZM2.59156 0.702729C3.61197 -0.317678 5.29581 -0.212846 6.18177 0.926247L8.64811 4.09726C9.10071 4.67918 9.26065 5.43687 9.08185 6.15206L8.32936 9.16203C8.24992 9.4798 8.34303 9.81595 8.57464 10.0476L11.9524 13.4254C12.1841 13.657 12.5202 13.7501 12.838 13.6706L15.8479 12.9182C16.5631 12.7394 17.3208 12.8993 17.9027 13.3519L21.0738 15.8182C22.2128 16.7042 22.3177 18.388 21.2973 19.4084L19.8756 20.8301C18.8585 21.8472 17.3372 22.2938 15.9194 21.7953C12.3991 20.5577 9.09478 18.5314 6.28167 15.7183C3.46857 12.9052 1.4423 9.60088 0.204652 6.08059C-0.293813 4.66279 0.152804 3.14149 1.16992 2.12437L2.59156 0.702729Z" fill="white"></path></svg>