<svg xmlns="http://www.w3.org/2000/svg" width="24" height="22" viewBox="0 0 24 22" fill="none"><path d="M13.0607 1.25007C12.4749 0.664285 11.5251 0.664282 10.9393 1.25007L0.96967 11.2197C0.676777 11.5126 0.676777 11.9875 0.96967 12.2804C1.26256 12.5733 1.73744 12.5733 2.03033 12.2804L3 11.3107V19.2501C3 20.4927 4.00736 21.5001 5.25 21.5001H18.75C19.9926 21.5001 21 20.4927 21 19.2501V11.3107L21.9697 12.2804C22.2626 12.5733 22.7374 12.5733 23.0303 12.2804C23.3232 11.9875 23.3232 11.5126 23.0303 11.2197L19.5 7.68941V2.75007C19.5 2.33586 19.1642 2.00007 18.75 2.00007H17.25C16.8358 2.00007 16.5 2.33586 16.5 2.75007V4.68941L13.0607 1.25007ZM19.5 9.81073V19.2501C19.5 19.6643 19.1642 20.0001 18.75 20.0001H5.25C4.83579 20.0001 4.5 19.6643 4.5 19.2501V9.81073L12 2.31073L19.5 9.81073Z" fill="white"></path></svg>