<svg xmlns="http://www.w3.org/2000/svg" width="24" height="23" viewBox="0 0 24 23" fill="none"><path d="M4.45607 1.02381C4.74104 0.691344 5.15706 0.5 5.59495 0.5H18.405C18.8429 0.5 19.259 0.691344 19.5439 1.02381L23.4583 5.59061C23.8079 5.9984 24 6.51779 24 7.05489V7.4375C24 9.40501 22.405 11 20.4375 11C19.2943 11 18.2769 10.4615 17.625 9.62437C16.9731 10.4615 15.9557 11 14.8125 11C13.6693 11 12.6519 10.4615 12 9.62437C11.3481 10.4615 10.3307 11 9.1875 11C8.0443 11 7.02687 10.4615 6.375 9.62437C5.72314 10.4615 4.7057 11 3.5625 11C1.59499 11 0 9.40501 0 7.4375V7.05489C0 6.51779 0.192132 5.9984 0.541673 5.59061L4.45607 1.02381ZM7.125 7.4375C7.125 8.57659 8.04841 9.5 9.1875 9.5C10.3266 9.5 11.25 8.57659 11.25 7.4375C11.25 7.02329 11.5858 6.6875 12 6.6875C12.4142 6.6875 12.75 7.02329 12.75 7.4375C12.75 8.57659 13.6734 9.5 14.8125 9.5C15.9516 9.5 16.875 8.57659 16.875 7.4375C16.875 7.02329 17.2108 6.6875 17.625 6.6875C18.0392 6.6875 18.375 7.02329 18.375 7.4375C18.375 8.57659 19.2984 9.5 20.4375 9.5C21.5766 9.5 22.5 8.57659 22.5 7.4375V7.05489C22.5 6.87585 22.436 6.70272 22.3194 6.56679L18.405 2H5.59495L1.68056 6.56679C1.56404 6.70272 1.5 6.87585 1.5 7.05489V7.4375C1.5 8.57659 2.42341 9.5 3.5625 9.5C4.70159 9.5 5.625 8.57659 5.625 7.4375C5.625 7.02329 5.96079 6.6875 6.375 6.6875C6.78921 6.6875 7.125 7.02329 7.125 7.4375ZM2.25 11.75C2.66421 11.75 3 12.0858 3 12.5V21.5H21V12.5C21 12.0858 21.3358 11.75 21.75 11.75C22.1642 11.75 22.5 12.0858 22.5 12.5V21.5H23.25C23.6642 21.5 24 21.8358 24 22.25C24 22.6642 23.6642 23 23.25 23H0.75C0.335786 23 0 22.6642 0 22.25C0 21.8358 0.335786 21.5 0.75 21.5H1.5V12.5C1.5 12.0858 1.83579 11.75 2.25 11.75ZM5.25 12.5C5.66421 12.5 6 12.8358 6 13.25V18.5H18V13.25C18 12.8358 18.3358 12.5 18.75 12.5C19.1642 12.5 19.5 12.8358 19.5 13.25V18.5C19.5 19.3284 18.8284 20 18 20H6C5.17157 20 4.5 19.3284 4.5 18.5V13.25C4.5 12.8358 4.83579 12.5 5.25 12.5Z" fill="white"></path></svg>